<?xml version="1.0" encoding="UTF-8"?>
<svg version="1.1" xmlns="http://www.w3.org/2000/svg" width="345" height="313">
<path d="M0 0 C1.71349547 0.00186793 3.42699147 0.00329006 5.14048767 0.00428772 C9.62354031 0.00808341 14.10655991 0.01788813 18.58959961 0.0289917 C23.1749629 0.03926959 27.7603316 0.04379894 32.34570312 0.04882812 C41.32293108 0.05951338 50.30013466 0.0765539 59.27734375 0.09765625 C58.08829076 3.66481523 57.2647165 3.99525573 54.15234375 5.91015625 C40.57819994 14.73120869 30.56616635 28.18723788 26.78562927 44.17741394 C26.36536167 46.29645674 25.9800396 48.41794404 25.61328125 50.546875 C25.48203857 51.27757202 25.3507959 52.00826904 25.21557617 52.7611084 C24.89709359 54.53893924 24.58639075 56.31816092 24.27734375 58.09765625 C23.13370361 58.11223877 21.99006348 58.12682129 20.81176758 58.1418457 C16.5080875 58.20047241 12.20489606 58.27769209 7.90161133 58.36010742 C6.05045592 58.39305757 4.19920725 58.42117918 2.34790039 58.4440918 C-14.40697036 58.65698148 -30.0270063 59.34728469 -43.109375 71.2734375 C-52.68876825 81.52569016 -54.3382957 91.2540507 -55.72265625 105.09765625 C-27.01265625 105.09765625 1.69734375 105.09765625 31.27734375 105.09765625 C32.56301104 107.66899084 32.39744153 109.49482725 32.39086914 112.37353516 C32.39079361 113.47452545 32.39071808 114.57551575 32.39064026 115.70986938 C32.38547897 116.90260468 32.38031769 118.09533997 32.375 119.32421875 C32.37287758 121.15114761 32.37287758 121.15114761 32.37071228 123.01498413 C32.36510014 126.91756615 32.35254554 130.82009148 32.33984375 134.72265625 C32.33483032 137.36328042 32.33026714 140.00390549 32.32617188 142.64453125 C32.31512676 149.1289257 32.29837677 155.61328693 32.27734375 162.09765625 C29.11502325 163.6788165 25.71892668 163.22702747 22.24755859 163.21118164 C21.41821304 163.21132767 20.58886749 163.21147369 19.73439026 163.21162415 C16.9856609 163.21092596 14.23699881 163.20313796 11.48828125 163.1953125 C9.58541908 163.19344799 7.68255643 163.19202424 5.7796936 163.19102478 C0.76553019 163.18720224 -4.24860436 163.17737418 -9.26275635 163.1663208 C-14.37698984 163.15610104 -19.49122799 163.15152595 -24.60546875 163.14648438 C-34.64454394 163.1357517 -44.6835977 163.11867841 -54.72265625 163.09765625 C-54.72852249 163.96050232 -54.73438873 164.82334839 -54.74043274 165.71234131 C-54.79862091 173.89095636 -54.87084456 182.06930587 -54.95837116 190.24766159 C-55.00287425 194.45105783 -55.04217298 198.65436161 -55.0690918 202.85791016 C-55.095327 206.9235373 -55.13586766 210.98880471 -55.18584251 215.05420685 C-55.20237589 216.59608698 -55.21397358 218.13802913 -55.22027016 219.67998505 C-55.30392342 238.30283448 -59.41673538 253.91053837 -72.796875 267.3984375 C-83.37602854 277.15837754 -96.93286582 282.52977254 -111.28515625 283.28515625 C-113.72265625 283.09765625 -113.72265625 283.09765625 -114.72265625 282.09765625 C-114.82194823 279.83230559 -114.84898075 277.56379019 -114.84963989 275.29626465 C-114.85119988 274.57644897 -114.85275987 273.85663329 -114.85436714 273.11500502 C-114.85838034 270.68407153 -114.85518605 268.25319966 -114.85205078 265.82226562 C-114.85340487 264.08617618 -114.85518485 262.35008702 -114.85736084 260.61399841 C-114.86193966 255.87958898 -114.86014236 251.14520123 -114.85698175 246.4107914 C-114.85445402 241.44992641 -114.85679745 236.4890633 -114.85836792 231.52819824 C-114.86019112 223.17846341 -114.85778222 214.8287374 -114.85302734 206.47900391 C-114.8476129 196.86073958 -114.84932613 187.24249655 -114.85485375 177.62423277 C-114.85941476 169.35394978 -114.86002003 161.08367315 -114.85741508 152.8133893 C-114.85586499 147.88044672 -114.85562287 142.94751407 -114.85895157 138.01457214 C-114.86187278 133.35905545 -114.85977776 128.70356566 -114.85405731 124.04805183 C-114.85275101 122.35233161 -114.85308686 120.65660907 -114.85531998 118.96088982 C-114.89665903 84.33475589 -110.00521722 55.60595438 -84.72265625 30.09765625 C-83.85640625 29.21851562 -82.99015625 28.339375 -82.09765625 27.43359375 C-59.52918048 5.73830305 -30.25116221 -0.09726884 0 0 Z " fill="#FEFEFE" transform="translate(121.72265625,20.90234375)"/>
<path d="M0 0 C1.10390579 -0.00014603 2.20781158 -0.00029205 3.34516907 -0.0004425 C6.94855806 0.0002472 10.55189361 0.00799494 14.15527344 0.01586914 C16.67161023 0.01773667 19.18794738 0.01915899 21.70428467 0.02015686 C27.62190224 0.02356858 33.53950047 0.03142824 39.45711017 0.04150635 C46.86560914 0.05384572 54.27411054 0.05916536 61.68261719 0.06469727 C74.87663711 0.07538798 88.07064157 0.09223723 101.26464844 0.11352539 C101.28167614 2.36260391 101.29384851 4.61171957 101.30395508 6.86083984 C101.31489952 8.73954521 101.31489952 8.73954521 101.32606506 10.65620422 C101.10169951 23.28639603 94.99486165 34.29247765 86.51464844 43.36352539 C72.51170699 56.47952429 57.32331754 58.71068409 38.95214844 58.86352539 C37.22881211 58.89175287 35.50550289 58.92168947 33.78222656 58.95336914 C29.60975046 59.02641994 25.43759314 59.07648081 21.26464844 59.11352539 C21.26557023 60.2618859 21.26649202 61.41024641 21.26744175 62.59340572 C21.28960784 90.49176245 21.30605826 118.39011805 21.31646061 146.28848171 C21.31748051 148.9704787 21.31852183 151.65247568 21.31958008 154.33447266 C21.31984239 155.00111744 21.3201047 155.66776222 21.32037496 156.35460836 C21.32473167 167.16273458 21.33261922 177.97085551 21.34180123 188.77897858 C21.35113775 199.86101446 21.35662914 210.94304818 21.35873693 222.02508789 C21.36004446 228.25309873 21.36313293 234.48109754 21.37037849 240.70910454 C21.37713486 246.56370614 21.37926619 252.41829069 21.37775612 258.27289581 C21.37803262 260.42846583 21.38004001 262.58403638 21.38385391 264.73960304 C21.38878516 267.66886625 21.38764884 270.59806396 21.38490295 273.52732849 C21.3878158 274.39209712 21.39072864 275.25686575 21.39372975 276.14783949 C21.37876965 281.99940418 21.37876965 281.99940418 20.26464844 283.11352539 C4.77105369 283.26136504 -10.46981003 276.84779394 -21.67285156 266.30493164 C-35.82703336 251.26611348 -38.05419091 234.66232304 -37.96240234 214.89208984 C-37.96183722 213.17620348 -37.96215676 211.46031663 -37.96328735 209.74443054 C-37.96385793 205.11708725 -37.95215165 200.48984901 -37.93813944 195.86252999 C-37.92558265 191.01522631 -37.92445769 186.16791985 -37.92208862 181.32060242 C-37.91588834 172.15529335 -37.89949727 162.99003236 -37.87938964 153.8247444 C-37.85698532 143.3845496 -37.84602584 132.94435243 -37.83599877 122.50413954 C-37.81512968 101.04056875 -37.77847168 79.57706381 -37.73535156 58.11352539 C-50.93535156 58.11352539 -64.13535156 58.11352539 -77.73535156 58.11352539 C-74.65677251 39.6420511 -67.62043293 24.3829925 -52.42285156 12.92602539 C-36.20719007 1.67434191 -19.33558384 -0.06859145 0 0 Z " fill="#FEFEFE" transform="translate(238.7353515625,20.886474609375)"/>
</svg>
